<svg width="230" height="320" viewBox="0 0 230 320" fill="none" xmlns="http://www.w3.org/2000/svg">
<rect width="230" height="320" fill="#233A50"/>
<path d="M116 130L118.64 115L120.14 110.2L120.065 110.185L117.755 114.7C116.155 117.21 114.73 119.45 113.48 121.42C112.94 122.26 112.415 123.085 111.905 123.895C111.395 124.695 110.935 125.405 110.525 126.025C110.125 126.645 109.8 127.145 109.55 127.525C109.31 127.895 109.185 128.07 109.175 128.05H108.14L104.705 116.2L103.775 110.185L103.685 110.2L103.37 116.485L101 130H98.12L101.525 110.65L101.66 107.5L105.11 107.2L109.205 121.3L109.34 125.2L110.855 121.3L119.72 107.5L123.02 107.2L119 130H116ZM97.28 166L97.715 163.48C98.325 162.58 98.975 161.74 99.665 160.96C100.355 160.17 101.045 159.445 101.735 158.785C102.435 158.115 103.11 157.505 103.76 156.955C104.42 156.405 105.015 155.91 105.545 155.47C106.215 154.91 106.85 154.385 107.45 153.895C108.05 153.395 108.575 152.9 109.025 152.41C109.475 151.92 109.825 151.425 110.075 150.925C110.335 150.415 110.465 149.865 110.465 149.275C110.455 148.365 110.205 147.605 109.715 146.995C109.235 146.375 108.465 145.97 107.405 145.78C106.835 145.68 106.31 145.695 105.83 145.825C105.35 145.945 104.91 146.145 104.51 146.425C104.11 146.705 103.75 147.035 103.43 147.415C103.12 147.795 102.845 148.19 102.605 148.6L100.655 147.7C101.005 146.95 101.43 146.285 101.93 145.705C102.44 145.125 103.01 144.645 103.64 144.265C104.27 143.885 104.96 143.605 105.71 143.425C106.46 143.245 107.25 143.185 108.08 143.245C109.02 143.305 109.83 143.525 110.51 143.905C111.2 144.285 111.76 144.765 112.19 145.345C112.63 145.925 112.945 146.57 113.135 147.28C113.325 147.99 113.4 148.71 113.36 149.44C113.32 150.22 113.11 150.96 112.73 151.66C112.36 152.35 111.9 153.01 111.35 153.64C110.81 154.26 110.225 154.845 109.595 155.395C108.965 155.935 108.375 156.445 107.825 156.925C107.205 157.455 106.585 157.99 105.965 158.53C105.345 159.07 104.745 159.615 104.165 160.165C103.595 160.715 103.055 161.275 102.545 161.845C102.045 162.415 101.6 163 101.21 163.6H111.26L110.84 166H97.28ZM111.77 200.575C111.57 200.715 111.29 200.88 110.93 201.07C110.57 201.26 110.13 201.445 109.61 201.625C109.09 201.795 108.485 201.94 107.795 202.06C107.105 202.19 106.325 202.255 105.455 202.255C104.105 202.255 102.94 201.955 101.96 201.355C100.98 200.745 100.19 199.91 99.59 198.85C99 197.79 98.6 196.54 98.39 195.1C98.19 193.66 98.185 192.11 98.375 190.45C98.565 188.79 98.955 187.275 99.545 185.905C100.145 184.525 100.915 183.345 101.855 182.365C102.795 181.375 103.895 180.61 105.155 180.07C106.415 179.52 107.805 179.245 109.325 179.245C111.755 179.245 113.63 179.905 114.95 181.225L113.48 183.055C113.16 182.835 112.84 182.65 112.52 182.5C112.2 182.35 111.865 182.23 111.515 182.14C111.165 182.05 110.79 181.985 110.39 181.945C110 181.905 109.575 181.885 109.115 181.885C108.055 181.895 107.08 182.105 106.19 182.515C105.3 182.915 104.52 183.485 103.85 184.225C103.18 184.965 102.635 185.86 102.215 186.91C101.795 187.95 101.52 189.115 101.39 190.405C101.32 191.105 101.275 191.82 101.255 192.55C101.235 193.27 101.265 193.975 101.345 194.665C101.425 195.355 101.565 196.005 101.765 196.615C101.975 197.225 102.27 197.76 102.65 198.22C103.04 198.68 103.53 199.045 104.12 199.315C104.71 199.575 105.43 199.705 106.28 199.705C106.73 199.705 107.16 199.675 107.57 199.615C107.98 199.555 108.38 199.465 108.77 199.345C109.16 199.225 109.55 199.08 109.94 198.91C110.33 198.73 110.73 198.525 111.14 198.295L111.77 200.575Z" fill="#ABB7C4" fill-opacity="0.4"/>
</svg>
